<?xml version="1.0" encoding="utf-8"?>
<!-- Generator: Adobe Illustrator 18.0.0, SVG Export Plug-In . SVG Version: 6.00 Build 0)  -->
<!DOCTYPE svg PUBLIC "-//W3C//DTD SVG 1.1//EN" "http://www.w3.org/Graphics/SVG/1.1/DTD/svg11.dtd">
<svg version="1.1" id="Capa_1" xmlns="http://www.w3.org/2000/svg" xmlns:xlink="http://www.w3.org/1999/xlink" x="0px" y="0px"
	 width="110px" height="35px" viewBox="0 0 110 35" enable-background="new 0 0 110 35" xml:space="preserve">
<g>
	<g>
		<path fill="#E6181A" d="M23.504,19.496h-4.269l-1.697-4.374h-7.77l-1.604,4.374H4l7.571-19.258h4.15L23.504,19.496z
			 M16.278,11.877L13.599,4.73l-2.625,7.146H16.278z"/>
		<path fill="#E6181A" d="M25.214,20.415l4.256,0.512c0.071,0.49,0.234,0.827,0.491,1.011c0.353,0.263,0.91,0.394,1.671,0.394
			c0.972,0,1.702-0.144,2.188-0.433c0.327-0.193,0.574-0.504,0.742-0.933c0.115-0.307,0.172-0.872,0.172-1.695v-2.036
			c-1.114,1.506-2.519,2.259-4.216,2.259c-1.892,0-3.39-0.792-4.495-2.378c-0.866-1.252-1.3-2.811-1.3-4.676
			c0-2.338,0.568-4.125,1.704-5.36c1.136-1.235,2.548-1.852,4.236-1.852c1.741,0,3.177,0.757,4.309,2.273V5.545h3.487v12.519
			c0,1.646-0.137,2.877-0.411,3.691c-0.274,0.815-0.659,1.454-1.153,1.918c-0.495,0.464-1.156,0.828-1.982,1.09
			c-0.827,0.263-1.872,0.394-3.136,0.394c-2.387,0-4.079-0.405-5.078-1.215c-0.999-0.81-1.498-1.837-1.498-3.081
			C25.201,20.739,25.205,20.59,25.214,20.415z M28.542,12.231c0,1.48,0.289,2.564,0.868,3.251c0.579,0.688,1.293,1.031,2.141,1.031
			c0.91,0,1.679-0.353,2.307-1.058c0.628-0.705,0.941-1.749,0.941-3.133c0-1.445-0.301-2.518-0.902-3.218
			c-0.601-0.701-1.361-1.051-2.281-1.051c-0.893,0-1.629,0.344-2.207,1.031C28.831,9.773,28.542,10.821,28.542,12.231z"/>
		<path fill="#E6181A" d="M45.712,19.496h-3.726V5.545h3.461v1.984c0.592-0.937,1.125-1.554,1.598-1.852
			c0.473-0.298,1.01-0.447,1.611-0.447c0.849,0,1.666,0.232,2.453,0.696l-1.153,3.218c-0.628-0.403-1.211-0.604-1.75-0.604
			c-0.522,0-0.964,0.143-1.326,0.427c-0.362,0.285-0.648,0.799-0.855,1.543c-0.208,0.745-0.311,2.303-0.311,4.677V19.496z"/>
		<path fill="#E6181A" d="M51.851,12.323c0-1.226,0.305-2.413,0.915-3.56c0.61-1.147,1.474-2.023,2.592-2.627
			c1.118-0.604,2.367-0.906,3.746-0.906c2.13,0,3.876,0.685,5.237,2.056c1.361,1.371,2.042,3.102,2.042,5.195
			c0,2.111-0.687,3.86-2.062,5.248c-1.375,1.388-3.105,2.082-5.191,2.082c-1.291,0-2.521-0.289-3.693-0.867
			c-1.171-0.578-2.062-1.425-2.672-2.542C52.156,15.286,51.851,13.926,51.851,12.323z M55.669,12.52
			c0,1.384,0.331,2.443,0.995,3.179c0.663,0.736,1.48,1.103,2.453,1.103c0.972,0,1.788-0.368,2.446-1.103
			c0.658-0.736,0.988-1.804,0.988-3.205c0-1.366-0.33-2.417-0.988-3.153c-0.659-0.736-1.474-1.104-2.446-1.104
			c-0.972,0-1.79,0.368-2.453,1.104C56.001,10.077,55.669,11.137,55.669,12.52z"/>
	</g>
	<g>
		<path fill="#4D4D4F" d="M69.296,19.804V2.819h-6.404V0.546h15.407v2.273h-6.43v16.985H69.296z"/>
		<path fill="#4D4D4F" d="M92.725,25.151V5.853h2.175v1.813c0.512-0.709,1.092-1.241,1.737-1.596
			c0.645-0.355,1.427-0.532,2.347-0.532c1.202,0,2.263,0.307,3.182,0.92c0.919,0.613,1.613,1.478,2.082,2.594
			c0.468,1.117,0.703,2.341,0.703,3.672c0,1.427-0.259,2.713-0.776,3.855c-0.517,1.143-1.269,2.019-2.254,2.627
			c-0.986,0.608-2.022,0.913-3.109,0.913c-0.796,0-1.51-0.166-2.141-0.499c-0.632-0.333-1.152-0.753-1.558-1.261v6.792H92.725z
			 M94.886,12.907c0,1.795,0.367,3.122,1.101,3.98c0.733,0.858,1.622,1.287,2.665,1.287c1.061,0,1.969-0.444,2.725-1.333
			c0.756-0.889,1.134-2.266,1.134-4.131c0-1.778-0.369-3.109-1.107-3.993c-0.738-0.885-1.62-1.327-2.645-1.327
			c-1.017,0-1.916,0.471-2.698,1.412C95.277,9.744,94.886,11.112,94.886,12.907z"/>
		<path fill="#59595A" d="M86.288,12.9v0.051c0,2.466-1.459,4.544-3.764,4.544c-2.212,0-3.793-2.106-3.793-4.594v-0.054
			c0-2.357,1.314-4.327,3.391-4.528c-0.041-0.85-0.02-1.876,0.169-2.878c-3.694,0.133-6.404,3.454-6.404,7.46v0.051
			c0,4.059,2.803,7.386,6.588,7.386c3.838,0,6.661-3.377,6.661-7.437v-0.054c0-0.975-0.163-1.909-0.459-2.766
			c-0.721,0.513-1.635,0.827-2.71,0.931C86.176,11.588,86.288,12.227,86.288,12.9"/>
	</g>
	<g>
		<path d="M45.593,32.092h-3.92V26.19h3.92v0.677h-2.981v1.829h2.865v0.677h-2.865v2.032h2.981V32.092z"/>
		<path d="M52.236,32.092h-0.918l-0.137-3.68l-0.058-1.413l-0.322,0.822l-1.018,2.348h-0.649l-0.971-2.258l-0.322-0.912
			l-0.021,1.477l-0.121,3.617h-0.886l0.338-5.902h1.113l0.929,2.222l0.301,0.749l0.29-0.749l0.976-2.222h1.145L52.236,32.092z"/>
		<path d="M57.856,27.996c0,0.241-0.053,0.479-0.158,0.716c-0.105,0.236-0.269,0.448-0.491,0.634
			c-0.221,0.187-0.505,0.338-0.849,0.454c-0.345,0.116-0.757,0.174-1.235,0.174h-0.855v2.118h-0.939V26.19h1.942
			c0.341,0,0.668,0.032,0.981,0.097c0.313,0.065,0.588,0.169,0.826,0.314c0.237,0.144,0.426,0.331,0.567,0.56
			C57.785,27.39,57.856,27.668,57.856,27.996z M56.879,28.033c0-0.379-0.145-0.67-0.435-0.872c-0.29-0.201-0.696-0.303-1.216-0.303
			h-0.96v2.43h0.876c0.556,0,0.984-0.104,1.285-0.312C56.729,28.768,56.879,28.454,56.879,28.033z"/>
		<path d="M63.982,32.092h-1.061l-1.029-1.887c-0.077-0.145-0.157-0.264-0.237-0.359c-0.081-0.095-0.168-0.17-0.261-0.226
			c-0.093-0.056-0.195-0.096-0.306-0.12c-0.111-0.024-0.235-0.036-0.372-0.036h-0.443v2.628h-0.939V26.19h1.847
			c0.401,0,0.746,0.038,1.034,0.113c0.288,0.075,0.525,0.181,0.71,0.316c0.185,0.135,0.32,0.299,0.406,0.49
			c0.086,0.191,0.129,0.403,0.129,0.634c0,0.184-0.032,0.358-0.095,0.522c-0.063,0.164-0.157,0.313-0.282,0.447
			c-0.125,0.134-0.28,0.25-0.464,0.348c-0.185,0.098-0.397,0.171-0.636,0.219c0.193,0.057,0.358,0.157,0.493,0.3
			c0.135,0.143,0.273,0.333,0.414,0.571L63.982,32.092z M62.478,27.811c0-0.316-0.115-0.552-0.346-0.709
			c-0.23-0.157-0.555-0.235-0.973-0.235h-0.886v1.951h0.76c0.222,0,0.421-0.022,0.599-0.066c0.178-0.044,0.329-0.108,0.454-0.194
			c0.125-0.086,0.222-0.191,0.29-0.316C62.443,28.118,62.478,27.974,62.478,27.811z"/>
		<path d="M69.358,32.092h-3.92V26.19h3.92v0.677h-2.981v1.829h2.865v0.677h-2.865v2.032h2.981V32.092z"/>
		<path d="M75.579,30.493c0,0.28-0.067,0.526-0.2,0.736c-0.134,0.211-0.32,0.386-0.559,0.526S74.293,32,73.957,32.069
			c-0.336,0.069-0.706,0.104-1.111,0.104c-0.183,0-0.365-0.006-0.546-0.018c-0.181-0.012-0.355-0.027-0.522-0.045
			c-0.167-0.018-0.325-0.039-0.472-0.063c-0.148-0.024-0.281-0.05-0.401-0.077v-0.777c0.264,0.084,0.56,0.151,0.889,0.199
			c0.329,0.048,0.703,0.072,1.121,0.072c0.303,0,0.56-0.02,0.773-0.061c0.213-0.041,0.387-0.101,0.522-0.181
			c0.135-0.08,0.234-0.177,0.295-0.291c0.061-0.115,0.092-0.245,0.092-0.393c0-0.16-0.052-0.296-0.156-0.409
			c-0.104-0.113-0.24-0.214-0.409-0.303c-0.169-0.089-0.362-0.17-0.578-0.244c-0.216-0.074-0.437-0.15-0.662-0.228
			c-0.225-0.078-0.446-0.163-0.662-0.255c-0.216-0.092-0.409-0.2-0.578-0.325c-0.169-0.125-0.305-0.272-0.409-0.44
			c-0.104-0.169-0.156-0.369-0.156-0.6c0-0.202,0.049-0.401,0.148-0.596c0.099-0.196,0.252-0.37,0.459-0.522
			c0.208-0.152,0.474-0.275,0.799-0.368c0.325-0.093,0.713-0.14,1.163-0.14c0.116,0,0.242,0.004,0.377,0.014
			c0.135,0.009,0.273,0.022,0.412,0.038s0.276,0.035,0.412,0.056c0.135,0.021,0.261,0.044,0.377,0.068v0.723
			c-0.271-0.066-0.542-0.117-0.813-0.151c-0.271-0.034-0.533-0.052-0.786-0.052c-0.538,0-0.934,0.077-1.187,0.23
			c-0.253,0.154-0.38,0.36-0.38,0.619c0,0.16,0.052,0.297,0.156,0.411c0.104,0.115,0.24,0.217,0.409,0.307
			c0.169,0.09,0.362,0.172,0.578,0.246c0.216,0.074,0.437,0.15,0.662,0.228c0.225,0.078,0.446,0.164,0.662,0.257
			c0.216,0.093,0.409,0.204,0.578,0.332c0.169,0.128,0.305,0.278,0.409,0.449C75.527,30.055,75.579,30.259,75.579,30.493z"/>
		<path d="M82.149,32.092h-1.024l-0.48-1.287h-2.87l-0.485,1.287h-0.976l2.29-5.902h1.287L82.149,32.092z M80.376,30.087
			l-1.166-3.157l-1.166,3.157H80.376z"/>
		<path d="M87.462,30.493c0,0.28-0.067,0.526-0.2,0.736c-0.134,0.211-0.32,0.386-0.559,0.526S86.175,32,85.839,32.069
			c-0.336,0.069-0.706,0.104-1.111,0.104c-0.183,0-0.365-0.006-0.546-0.018c-0.181-0.012-0.355-0.027-0.522-0.045
			c-0.167-0.018-0.325-0.039-0.472-0.063c-0.148-0.024-0.281-0.05-0.401-0.077v-0.777c0.264,0.084,0.56,0.151,0.889,0.199
			c0.329,0.048,0.703,0.072,1.121,0.072c0.303,0,0.56-0.02,0.773-0.061c0.213-0.041,0.387-0.101,0.522-0.181
			c0.135-0.08,0.234-0.177,0.295-0.291c0.061-0.115,0.092-0.245,0.092-0.393c0-0.16-0.052-0.296-0.156-0.409
			c-0.104-0.113-0.24-0.214-0.409-0.303c-0.169-0.089-0.362-0.17-0.578-0.244c-0.216-0.074-0.437-0.15-0.662-0.228
			c-0.225-0.078-0.446-0.163-0.662-0.255c-0.216-0.092-0.409-0.2-0.578-0.325c-0.169-0.125-0.305-0.272-0.409-0.44
			c-0.104-0.169-0.156-0.369-0.156-0.6c0-0.202,0.049-0.401,0.148-0.596c0.099-0.196,0.252-0.37,0.459-0.522
			c0.208-0.152,0.474-0.275,0.799-0.368c0.325-0.093,0.713-0.14,1.163-0.14c0.116,0,0.242,0.004,0.377,0.014
			c0.135,0.009,0.273,0.022,0.412,0.038c0.139,0.017,0.276,0.035,0.412,0.056c0.135,0.021,0.261,0.044,0.377,0.068v0.723
			c-0.271-0.066-0.542-0.117-0.813-0.151c-0.271-0.034-0.533-0.052-0.786-0.052c-0.538,0-0.934,0.077-1.187,0.23
			c-0.253,0.154-0.38,0.36-0.38,0.619c0,0.16,0.052,0.297,0.156,0.411c0.104,0.115,0.24,0.217,0.409,0.307
			c0.169,0.09,0.362,0.172,0.578,0.246c0.216,0.074,0.437,0.15,0.662,0.228c0.225,0.078,0.446,0.164,0.662,0.257
			c0.216,0.093,0.409,0.204,0.578,0.332c0.169,0.128,0.305,0.278,0.409,0.449C87.41,30.055,87.462,30.259,87.462,30.493z"/>
	</g>
	<path fill="#78AE1B" d="M84.997,3.151c1.723-0.95,3.792-0.454,5.675-0.521c-0.193,1.951,0.025,4.136-1.211,5.801
		c-1.623,1.782-4.237,1.253-6.373,1.429C83.307,7.598,82.769,4.605,84.997,3.151L84.997,3.151z"/>
	<rect x="92.741" y="17.91" fill="#4D4D4F" width="2.382" height="16.779"/>
</g>
</svg>
